<mxfile host="app.diagrams.net" modified="2022-11-14T14:23:30.746Z" agent="5.0 (Macintosh; Intel Mac OS X 10_15_7) AppleWebKit/537.36 (KHTML, like Gecko) Chrome/105.0.0.0 Safari/537.36" etag="nVP2qeQBsoF6LGsbnG0L" version="20.5.3" type="github">
  <diagram id="bLBjtyjpM0WpkWW456gq" name="Trang-1">
    <mxGraphModel dx="1113" dy="665" grid="1" gridSize="10" guides="1" tooltips="1" connect="1" arrows="1" fold="1" page="1" pageScale="1" pageWidth="827" pageHeight="1169" math="0" shadow="0">
      <root>
        <mxCell id="0" />
        <mxCell id="1" parent="0" />
        <mxCell id="ZzkqqNzEeQaLr0oJew20-4" value="" style="group" vertex="1" connectable="0" parent="1">
          <mxGeometry x="30" y="240" width="80" height="160" as="geometry" />
        </mxCell>
        <mxCell id="ZzkqqNzEeQaLr0oJew20-1" value="" style="ellipse;shape=doubleEllipse;whiteSpace=wrap;html=1;aspect=fixed;" vertex="1" parent="ZzkqqNzEeQaLr0oJew20-4">
          <mxGeometry width="80" height="80" as="geometry" />
        </mxCell>
        <mxCell id="ZzkqqNzEeQaLr0oJew20-3" value="&lt;b&gt;&lt;font style=&quot;font-size: 18px;&quot;&gt;Git init&lt;/font&gt;&lt;/b&gt;" style="text;html=1;strokeColor=none;fillColor=none;align=center;verticalAlign=middle;whiteSpace=wrap;rounded=0;" vertex="1" parent="ZzkqqNzEeQaLr0oJew20-4">
          <mxGeometry y="114.28571428571428" width="80" height="45.71428571428571" as="geometry" />
        </mxCell>
        <mxCell id="ZzkqqNzEeQaLr0oJew20-7" value="" style="endArrow=classic;html=1;rounded=0;fontSize=18;exitX=1;exitY=0.5;exitDx=0;exitDy=0;entryX=0;entryY=0.5;entryDx=0;entryDy=0;" edge="1" parent="1" source="ZzkqqNzEeQaLr0oJew20-1" target="ZzkqqNzEeQaLr0oJew20-11">
          <mxGeometry width="50" height="50" relative="1" as="geometry">
            <mxPoint x="440" y="330" as="sourcePoint" />
            <mxPoint x="240" y="280" as="targetPoint" />
          </mxGeometry>
        </mxCell>
        <mxCell id="ZzkqqNzEeQaLr0oJew20-10" value="" style="group" vertex="1" connectable="0" parent="1">
          <mxGeometry x="200" y="240" width="80" height="160" as="geometry" />
        </mxCell>
        <mxCell id="ZzkqqNzEeQaLr0oJew20-11" value="" style="ellipse;shape=doubleEllipse;whiteSpace=wrap;html=1;aspect=fixed;" vertex="1" parent="ZzkqqNzEeQaLr0oJew20-10">
          <mxGeometry width="80" height="80" as="geometry" />
        </mxCell>
        <mxCell id="ZzkqqNzEeQaLr0oJew20-12" value="&lt;span style=&quot;font-size: 18px;&quot;&gt;&lt;b&gt;conventional configurations&lt;br&gt;&lt;br&gt;&lt;/b&gt;&lt;/span&gt;" style="text;html=1;strokeColor=none;fillColor=none;align=center;verticalAlign=middle;whiteSpace=wrap;rounded=0;" vertex="1" parent="ZzkqqNzEeQaLr0oJew20-10">
          <mxGeometry y="114.28571428571428" width="80" height="45.71428571428571" as="geometry" />
        </mxCell>
        <mxCell id="ZzkqqNzEeQaLr0oJew20-13" value="" style="group" vertex="1" connectable="0" parent="1">
          <mxGeometry x="400" y="80" width="80" height="160" as="geometry" />
        </mxCell>
        <mxCell id="ZzkqqNzEeQaLr0oJew20-14" value="" style="ellipse;shape=doubleEllipse;whiteSpace=wrap;html=1;aspect=fixed;" vertex="1" parent="ZzkqqNzEeQaLr0oJew20-13">
          <mxGeometry width="80" height="80" as="geometry" />
        </mxCell>
        <mxCell id="ZzkqqNzEeQaLr0oJew20-15" value="&lt;span style=&quot;font-size: 18px;&quot;&gt;&lt;b&gt;common dependencies&lt;br&gt;&lt;br&gt;&lt;/b&gt;&lt;/span&gt;" style="text;html=1;strokeColor=none;fillColor=none;align=center;verticalAlign=middle;whiteSpace=wrap;rounded=0;" vertex="1" parent="ZzkqqNzEeQaLr0oJew20-13">
          <mxGeometry y="114.28571428571428" width="80" height="45.71428571428571" as="geometry" />
        </mxCell>
        <mxCell id="ZzkqqNzEeQaLr0oJew20-16" value="" style="group" vertex="1" connectable="0" parent="1">
          <mxGeometry x="400" y="360" width="80" height="160" as="geometry" />
        </mxCell>
        <mxCell id="ZzkqqNzEeQaLr0oJew20-17" value="" style="ellipse;shape=doubleEllipse;whiteSpace=wrap;html=1;aspect=fixed;" vertex="1" parent="ZzkqqNzEeQaLr0oJew20-16">
          <mxGeometry width="80" height="80" as="geometry" />
        </mxCell>
        <mxCell id="ZzkqqNzEeQaLr0oJew20-18" value="&lt;span style=&quot;font-size: 18px;&quot;&gt;&lt;b&gt;env&lt;br&gt;&amp;nbsp;setups&lt;br&gt;&lt;/b&gt;&lt;/span&gt;" style="text;html=1;strokeColor=none;fillColor=none;align=center;verticalAlign=middle;whiteSpace=wrap;rounded=0;" vertex="1" parent="ZzkqqNzEeQaLr0oJew20-16">
          <mxGeometry y="114.28571428571428" width="80" height="45.71428571428571" as="geometry" />
        </mxCell>
        <mxCell id="ZzkqqNzEeQaLr0oJew20-19" value="" style="group" vertex="1" connectable="0" parent="1">
          <mxGeometry x="600" y="40" width="80" height="160" as="geometry" />
        </mxCell>
        <mxCell id="ZzkqqNzEeQaLr0oJew20-20" value="" style="ellipse;shape=doubleEllipse;whiteSpace=wrap;html=1;aspect=fixed;" vertex="1" parent="ZzkqqNzEeQaLr0oJew20-19">
          <mxGeometry width="80" height="80" as="geometry" />
        </mxCell>
        <mxCell id="ZzkqqNzEeQaLr0oJew20-21" value="&lt;span style=&quot;font-size: 18px;&quot;&gt;&lt;b&gt;Feature_1&lt;br&gt;&lt;/b&gt;&lt;/span&gt;" style="text;html=1;strokeColor=none;fillColor=none;align=center;verticalAlign=middle;whiteSpace=wrap;rounded=0;" vertex="1" parent="ZzkqqNzEeQaLr0oJew20-19">
          <mxGeometry y="99.99571428571429" width="80" height="45.71428571428571" as="geometry" />
        </mxCell>
        <mxCell id="ZzkqqNzEeQaLr0oJew20-22" value="" style="group" vertex="1" connectable="0" parent="1">
          <mxGeometry x="600" y="200" width="80" height="160" as="geometry" />
        </mxCell>
        <mxCell id="ZzkqqNzEeQaLr0oJew20-23" value="" style="ellipse;shape=doubleEllipse;whiteSpace=wrap;html=1;aspect=fixed;" vertex="1" parent="ZzkqqNzEeQaLr0oJew20-22">
          <mxGeometry width="80" height="80" as="geometry" />
        </mxCell>
        <mxCell id="ZzkqqNzEeQaLr0oJew20-24" value="&lt;span style=&quot;font-size: 18px;&quot;&gt;&lt;b&gt;Feature_2&lt;br&gt;&lt;/b&gt;&lt;/span&gt;" style="text;html=1;strokeColor=none;fillColor=none;align=center;verticalAlign=middle;whiteSpace=wrap;rounded=0;" vertex="1" parent="ZzkqqNzEeQaLr0oJew20-22">
          <mxGeometry y="99.99571428571429" width="80" height="45.71428571428571" as="geometry" />
        </mxCell>
        <mxCell id="ZzkqqNzEeQaLr0oJew20-25" value="" style="ellipse;shape=doubleEllipse;whiteSpace=wrap;html=1;aspect=fixed;" vertex="1" parent="1">
          <mxGeometry x="600" y="480" width="80" height="80" as="geometry" />
        </mxCell>
        <mxCell id="ZzkqqNzEeQaLr0oJew20-26" value="&lt;span style=&quot;font-size: 18px;&quot;&gt;&lt;b&gt;Feature_n&lt;br&gt;&lt;/b&gt;&lt;/span&gt;" style="text;html=1;strokeColor=none;fillColor=none;align=center;verticalAlign=middle;whiteSpace=wrap;rounded=0;" vertex="1" parent="1">
          <mxGeometry x="600" y="499.99571428571426" width="80" height="45.71428571428571" as="geometry" />
        </mxCell>
        <mxCell id="ZzkqqNzEeQaLr0oJew20-27" value="" style="endArrow=classic;html=1;rounded=0;fontSize=18;" edge="1" parent="1" target="ZzkqqNzEeQaLr0oJew20-14">
          <mxGeometry width="50" height="50" relative="1" as="geometry">
            <mxPoint x="300" y="230" as="sourcePoint" />
            <mxPoint x="490" y="350" as="targetPoint" />
          </mxGeometry>
        </mxCell>
        <mxCell id="ZzkqqNzEeQaLr0oJew20-29" value="" style="endArrow=classic;html=1;rounded=0;fontSize=18;" edge="1" parent="1" target="ZzkqqNzEeQaLr0oJew20-17">
          <mxGeometry width="50" height="50" relative="1" as="geometry">
            <mxPoint x="300" y="300" as="sourcePoint" />
            <mxPoint x="490" y="350" as="targetPoint" />
          </mxGeometry>
        </mxCell>
        <mxCell id="ZzkqqNzEeQaLr0oJew20-30" value="" style="endArrow=classic;html=1;rounded=0;fontSize=18;" edge="1" parent="1" target="ZzkqqNzEeQaLr0oJew20-20">
          <mxGeometry width="50" height="50" relative="1" as="geometry">
            <mxPoint x="520" y="80" as="sourcePoint" />
            <mxPoint x="490" y="350" as="targetPoint" />
          </mxGeometry>
        </mxCell>
        <mxCell id="ZzkqqNzEeQaLr0oJew20-31" value="" style="endArrow=classic;html=1;rounded=0;fontSize=18;" edge="1" parent="1" target="ZzkqqNzEeQaLr0oJew20-23">
          <mxGeometry width="50" height="50" relative="1" as="geometry">
            <mxPoint x="520" y="240" as="sourcePoint" />
            <mxPoint x="490" y="350" as="targetPoint" />
          </mxGeometry>
        </mxCell>
        <mxCell id="ZzkqqNzEeQaLr0oJew20-32" value="" style="endArrow=classic;html=1;rounded=0;fontSize=18;" edge="1" parent="1" target="ZzkqqNzEeQaLr0oJew20-25">
          <mxGeometry width="50" height="50" relative="1" as="geometry">
            <mxPoint x="520" y="440" as="sourcePoint" />
            <mxPoint x="490" y="350" as="targetPoint" />
          </mxGeometry>
        </mxCell>
        <mxCell id="ZzkqqNzEeQaLr0oJew20-33" value="" style="endArrow=none;dashed=1;html=1;dashPattern=1 3;strokeWidth=2;rounded=0;fontSize=18;" edge="1" parent="1">
          <mxGeometry width="50" height="50" relative="1" as="geometry">
            <mxPoint x="600" y="400" as="sourcePoint" />
            <mxPoint x="680" y="400" as="targetPoint" />
          </mxGeometry>
        </mxCell>
      </root>
    </mxGraphModel>
  </diagram>
</mxfile>
